<svg xmlns="http://www.w3.org/2000/svg" width="70.3" height="70.3" viewBox="0 0 70.3 70.3"><style type="text/css">.st0{fill:#D5B865;}</style><path class="st0" d="M70.3 29.1l-29.2-29.1-6 6-6-6-29.1 29.1 6 6-6 6 29.1 29.1 6-6 6 6 29.1-29.1-6-6 6.1-6zm-5.7 12l-10.3 10.4-6.7-6.7-2.8 2.8 6.7 6.7-10.4 10.3-3.1-3.2 6.7-6.7-2.8-2.8-6.7 6.7-6.7-6.7-2.8 2.8 6.7 6.7-3.2 3.2-10.4-10.3 6.7-6.7-2.8-2.8-6.7 6.7-10.3-10.4 3.1-3.1 6.7 6.7 2.8-2.8-6.7-6.7 6.7-6.7-2.8-2.8-6.7 6.7-3.2-3.2 10.4-10.4 6.7 6.7 2.8-2.8-6.7-6.7 10.3-10.3 3.2 3.2-6.7 6.7 2.8 2.8 6.7-6.7 6.7 6.7 2.8-2.8-6.6-6.8 3.2-3.2 10.3 10.4-6.7 6.7 2.8 2.8 6.7-6.7 10.3 10.3-3.2 3.2-6.7-6.7-2.8 2.8 6.7 6.7-6.7 6.7 2.8 2.8 6.7-6.7 3.2 3.2zM20.3 35.1l14.8 14.8 14.8-14.8-14.8-14.8-14.8 14.8zm14.8 9.2l-9.1-9.2 9.1-9.1 9.1 9.1-9.1 9.2z"/></svg>