<?xml version="1.0" standalone="no"?>
<!DOCTYPE svg PUBLIC "-//W3C//DTD SVG 20010904//EN"
 "http://www.w3.org/TR/2001/REC-SVG-20010904/DTD/svg10.dtd">
<svg version="1.0" xmlns="http://www.w3.org/2000/svg"
 width="500.000000pt" height="500.000000pt" viewBox="0 0 500.000000 500.000000"
 preserveAspectRatio="xMidYMid meet">
<metadata>
Created by potrace 1.11, written by Peter Selinger 2001-2013
</metadata>
<g transform="translate(0.000000,500.000000) scale(0.100000,-0.100000)"
fill="#000000" stroke="none">
<path d="M1267 3733 l-878 -877 181 -181 180 -180 -180 -180 -181 -181 878
-877 877 -877 181 180 180 180 180 -180 181 -180 877 877 877 877 -180 181
-180 180 180 180 181 181 -878 877 -877 877 -181 -180 -180 -180 -180 180
-181 180 -877 -877z m865 144 l-202 -202 84 -84 c70 -70 87 -82 99 -72 8 6 97
95 198 196 101 102 189 185 194 185 6 0 97 -88 204 -195 107 -107 197 -195
200 -195 3 0 43 37 88 82 l83 83 -202 202 -202 202 94 95 95 95 308 -307 c169
-169 307 -310 307 -314 0 -4 -88 -94 -195 -201 -107 -107 -195 -198 -195 -202
0 -9 155 -165 164 -165 4 0 95 88 202 195 107 107 198 195 202 195 4 0 145
-138 314 -307 l308 -308 -96 -94 -95 -94 -203 202 -202 202 -79 -81 c-44 -44
-81 -84 -83 -88 -1 -5 85 -96 193 -203 107 -107 195 -198 195 -204 0 -5 -88
-97 -196 -204 -107 -107 -193 -198 -192 -203 2 -5 39 -45 83 -89 l80 -79 202
202 203 202 90 -89 c49 -50 90 -94 90 -100 0 -11 -601 -615 -612 -615 -4 0
-96 89 -205 199 l-199 199 -82 -82 c-45 -45 -82 -85 -82 -89 0 -5 88 -96 195
-204 107 -108 195 -198 195 -202 0 -11 -604 -611 -615 -611 -6 0 -51 41 -100
91 l-88 90 201 202 202 202 -85 85 -85 84 -31 -29 c-17 -17 -106 -105 -198
-197 -91 -92 -170 -168 -176 -168 -5 0 -97 88 -204 195 -107 107 -197 195
-201 195 -4 0 -44 -37 -88 -82 l-82 -83 202 -201 201 -202 -89 -91 c-49 -50
-94 -90 -101 -89 -14 3 -613 598 -613 609 0 4 88 95 195 203 107 107 195 198
195 202 0 9 -156 164 -165 164 -4 0 -95 -88 -202 -195 -107 -107 -197 -195
-201 -195 -4 0 -145 138 -314 308 l-308 307 96 94 95 95 202 -202 202 -201 86
84 86 84 -203 203 -202 204 202 201 202 202 -85 86 -85 85 -203 -202 -203
-202 -94 94 -95 95 310 311 311 311 198 -199 c109 -109 202 -198 206 -198 3 0
43 36 86 80 72 71 79 82 67 98 -7 9 -96 99 -196 200 -101 101 -183 186 -183
190 0 4 138 145 307 314 l307 307 95 -95 95 -94 -202 -203z"/>
<path d="M2058 2940 c-241 -241 -438 -441 -438 -445 0 -9 876 -885 885 -885 8
0 885 877 885 885 0 11 -877 885 -887 884 -4 0 -205 -197 -445 -439z m739
-189 c220 -219 252 -255 241 -269 -7 -9 -129 -132 -272 -274 -221 -221 -261
-257 -274 -246 -8 7 -132 129 -274 272 -254 254 -258 259 -241 279 10 11 132
134 271 274 251 251 254 254 274 236 11 -10 135 -132 275 -272z"/>
</g>
</svg>
